<svg xmlns="http://www.w3.org/2000/svg" xmlns:svg="http://www.w3.org/2000/svg" xmlns:xlink="http://www.w3.org/1999/xlink" id="svg99" width="400" height="200" version="1.1" viewBox="0 0 400 200"><metadata id="metadata101"/><defs id="defs67"><linearGradient id="color-fg-inverse"><stop id="stop6" stop-color="#FFF"/></linearGradient><linearGradient id="color-divider"><stop id="stop9" stop-color="#000" stop-opacity=".12"/></linearGradient><linearGradient id="color-divider-dark"><stop id="stop12" stop-color="#FFF" stop-opacity=".12"/></linearGradient><linearGradient id="color-accent"><stop id="stop15" stop-color="#7C4DFF"/></linearGradient><linearGradient id="color-bg"><stop id="stop18" stop-color="#F5F5F5"/></linearGradient><linearGradient id="color-bg-dark"><stop id="stop21" stop-color="#323232"/></linearGradient><linearGradient id="color-bg-button"><stop id="stop24" stop-color="#FAFAFA"/></linearGradient><linearGradient id="color-bg-button-dark"><stop id="stop27" stop-color="#414141"/></linearGradient><rect id="24x24" width="24" height="24" fill="none" stroke="none"/><circle id="slider-fill" cx="12" cy="12" r="6" stroke="none"/><circle id="slider-stroke" cx="12" cy="12" r="5" fill="none" stroke-width="2"/><path id="marks-slider-fill" stroke="none" d="M12 6a6 6 0 0 0-6 6 6 6 0 0 0 6 6h6v-6a6 6 0 0 0-6-6z"/><path id="marks-slider-stroke" fill="none" stroke-width="2" d="M12 7a5 5 0 0 0-5 5 5 5 0 0 0 5 5h5v-5a5 5 0 0 0-5-5z"/><g id="base-scale-slider"><use id="use35" xlink:href="#24x24"/><use id="use37" xlink:href="#slider-fill"/><use id="use39" xlink:href="#slider-stroke"/></g><g id="base-scale-horz-marks-after-slider"><use id="use42" xlink:href="#24x24"/><use id="use44" transform="rotate(45 12 12)" xlink:href="#marks-slider-fill"/><use id="use46" transform="rotate(45 12 12)" xlink:href="#marks-slider-stroke"/></g><use id="base-scale-vert-marks-before-slider" transform="rotate(90 12 12)" xlink:href="#base-scale-horz-marks-after-slider"/><use id="base-scale-horz-marks-before-slider" transform="rotate(180 12 12)" xlink:href="#base-scale-horz-marks-after-slider"/><use id="base-scale-vert-marks-after-slider" transform="rotate(270 12 12)" xlink:href="#base-scale-horz-marks-after-slider"/><rect id="40x40" width="40" height="40" fill="none"/><rect id="button-fill" width="24" height="24" rx="2"/><path id="check-path" d="M9 16.17L4.83 12l-1.42 1.41L9 19 21 7l-1.41-1.41z"/><g id="base-selectionmode-checkbox-unchecked"><use id="use55" xlink:href="#40x40"/><use id="use57" transform="matrix(1.5 0 0 1.5 2 2)" xlink:href="#button-fill"/></g><g id="base-selectionmode-checkbox-checked"><use id="use60" xlink:href="#40x40"/><use id="use62" fill="url(#color-accent)" transform="matrix(1.5 0 0 1.5 2 2)" xlink:href="#button-fill"/><use id="use64" fill="url(#color-fg-inverse)" transform="matrix(1.5 0 0 1.5 2 2)" xlink:href="#check-path"/></g><linearGradient id="linearGradient1252" x1="2.029" x2="3.791" y1="294.089" y2="294.089" gradientUnits="userSpaceOnUse" xlink:href="#color-fg-secondary-dark"/><linearGradient id="color-fg-secondary-dark"><stop id="stop19" stop-color="#FFF" stop-opacity=".7"/></linearGradient><linearGradient id="linearGradient1254" x1="1.656" x2="4.352" y1="294.135" y2="294.135" gradientUnits="userSpaceOnUse" xlink:href="#color-fg-inverse"/><linearGradient id="linearGradient1242" x1="2.029" x2="3.791" y1="294.089" y2="294.089" gradientUnits="userSpaceOnUse" xlink:href="#color-fg-secondary"/><linearGradient id="color-fg-secondary"><stop id="stop16" stop-color="#000" stop-opacity=".54"/></linearGradient><linearGradient id="linearGradient158" x1="1.656" x2="4.352" y1="294.135" y2="294.135" gradientUnits="userSpaceOnUse" xlink:href="#color-fg-inverse"/><linearGradient id="linearGradient160" x1="1.656" x2="4.352" y1="294.135" y2="294.135" gradientUnits="userSpaceOnUse" xlink:href="#color-fg-inverse"/><linearGradient id="linearGradient162" x1="2.029" x2="3.791" y1="294.089" y2="294.089" gradientUnits="userSpaceOnUse" xlink:href="#color-fg-secondary"/><linearGradient id="linearGradient164" x1="1.656" x2="4.352" y1="294.135" y2="294.135" gradientUnits="userSpaceOnUse" xlink:href="#color-fg-inverse"/><linearGradient id="linearGradient166" x1="2.029" x2="3.791" y1="294.089" y2="294.089" gradientUnits="userSpaceOnUse" xlink:href="#color-fg-secondary-dark"/></defs><g id="light"><rect id="rect69" width="200" height="200" fill="url(#color-bg)"/><use id="scale-slider" fill="url(#color-accent)" stroke="none" transform="translate(8 8)" xlink:href="#base-scale-slider"/><use id="scale-slider-disabled" fill="url(#color-bg)" stroke="url(#color-divider)" transform="translate(8 40)" xlink:href="#base-scale-slider"/><use id="scale-horz-marks-before-slider" fill="url(#color-accent)" stroke="none" transform="translate(40 8)" xlink:href="#base-scale-horz-marks-before-slider"/><use id="scale-horz-marks-before-slider-disabled" fill="url(#color-bg)" stroke="url(#color-divider)" transform="translate(40 40)" xlink:href="#base-scale-horz-marks-before-slider"/><use id="scale-horz-marks-after-slider" fill="url(#color-accent)" stroke="none" transform="translate(72 8)" xlink:href="#base-scale-horz-marks-after-slider"/><use id="scale-horz-marks-after-slider-disabled" fill="url(#color-bg)" stroke="url(#color-divider)" transform="translate(72 40)" xlink:href="#base-scale-horz-marks-after-slider"/><use id="scale-vert-marks-before-slider" fill="url(#color-accent)" stroke="none" transform="translate(104 8)" xlink:href="#base-scale-vert-marks-before-slider"/><use id="scale-vert-marks-before-slider-disabled" fill="url(#color-bg)" stroke="url(#color-divider)" transform="translate(104 40)" xlink:href="#base-scale-vert-marks-before-slider"/><use id="scale-vert-marks-after-slider" fill="url(#color-accent)" stroke="none" transform="translate(136 8)" xlink:href="#base-scale-vert-marks-after-slider"/><use id="scale-vert-marks-after-slider-disabled" fill="url(#color-bg)" stroke="url(#color-divider)" transform="translate(136 40)" xlink:href="#base-scale-vert-marks-after-slider"/><use id="selectionmode-checkbox-unchecked" fill="url(#color-bg-button)" transform="translate(8 72)" xlink:href="#base-selectionmode-checkbox-unchecked"/><use id="selectionmode-checkbox-checked" transform="translate(56 72)" xlink:href="#base-selectionmode-checkbox-checked"/></g><g id="dark" transform="translate(200)"><rect id="rect84" width="200" height="200" fill="url(#color-bg-dark)"/><use id="scale-slider-dark" fill="url(#color-accent)" stroke="none" transform="translate(8 8)" xlink:href="#base-scale-slider"/><use id="scale-slider-disabled-dark" fill="url(#color-bg-dark)" stroke="url(#color-divider-dark)" transform="translate(8 40)" xlink:href="#base-scale-slider"/><use id="scale-horz-marks-before-slider-dark" fill="url(#color-accent)" stroke="none" transform="translate(40 8)" xlink:href="#base-scale-horz-marks-before-slider"/><use id="scale-horz-marks-before-slider-disabled-dark" fill="url(#color-bg-dark)" stroke="url(#color-divider-dark)" transform="translate(40 40)" xlink:href="#base-scale-horz-marks-before-slider"/><use id="scale-horz-marks-after-slider-dark" fill="url(#color-accent)" stroke="none" transform="translate(72 8)" xlink:href="#base-scale-horz-marks-after-slider"/><use id="scale-horz-marks-after-slider-disabled-dark" fill="url(#color-bg-dark)" stroke="url(#color-divider-dark)" transform="translate(72 40)" xlink:href="#base-scale-horz-marks-after-slider"/><use id="scale-vert-marks-before-slider-dark" fill="url(#color-accent)" stroke="none" transform="translate(104 8)" xlink:href="#base-scale-vert-marks-before-slider"/><use id="scale-vert-marks-before-slider-disabled-dark" fill="url(#color-bg-dark)" stroke="url(#color-divider-dark)" transform="translate(104 40)" xlink:href="#base-scale-vert-marks-before-slider"/><use id="scale-vert-marks-after-slider-dark" fill="url(#color-accent)" stroke="none" transform="translate(136 8)" xlink:href="#base-scale-vert-marks-after-slider"/><use id="scale-vert-marks-after-slider-disabled-dark" fill="url(#color-bg-dark)" stroke="url(#color-divider-dark)" transform="translate(136 40)" xlink:href="#base-scale-vert-marks-after-slider"/><use id="selectionmode-checkbox-unchecked-dark" fill="url(#color-bg-button-dark)" transform="translate(8 72)" xlink:href="#base-selectionmode-checkbox-unchecked"/><use id="selectionmode-checkbox-checked-dark" transform="translate(56 72)" xlink:href="#base-selectionmode-checkbox-checked"/></g><g id="switch-slider-checked" transform="matrix(3.7795275,0,0,3.7795275,141.7072,-1021.8125)" style="fill:url(#linearGradient160);fill-opacity:1"><path style="opacity:1;fill:url(#linearGradient158);fill-opacity:1;fill-rule:evenodd;stroke:none;stroke-width:1.09544504;stroke-opacity:1" id="rect4570" d="m 150.36328,197.8418 c -0.12781,0 -0.25558,0.0505 -0.35351,0.14843 l -5.30274,5.30274 -3.18164,-3.18164 c -0.19587,-0.19587 -0.51116,-0.19587 -0.70703,0 -0.19587,0.19587 -0.19587,0.51116 0,0.70703 l 3.53516,3.53516 c 0.1469,0.1469 0.3605,0.18282 0.54101,0.10937 0.0602,-0.0245 0.11705,-0.0604 0.16602,-0.10937 l 5.65625,-5.65625 c 0.19587,-0.19587 0.19587,-0.51117 0,-0.70704 -0.0979,-0.0979 -0.22571,-0.14843 -0.35352,-0.14843 z" transform="matrix(0.26458334,0,0,0.26458334,-35.563766,240.9083)"/></g><g id="switch-slider-unchecked" transform="matrix(3.7795275,0,0,3.7795275,114.92517,-1021.313)" style="fill:url(#linearGradient1242);fill-opacity:1"><path style="opacity:1;fill:url(#linearGradient162);fill-opacity:1;fill-rule:evenodd;stroke:none;stroke-width:1.34164059;stroke-opacity:1" id="rect4584" d="m 115.80469,198.16992 c -0.12781,0 -0.25754,0.0505 -0.35547,0.14844 -0.19587,0.19587 -0.19587,0.51116 0,0.70703 l 2.47656,2.47461 -2.47461,2.47461 c -0.19587,0.19587 -0.19587,0.51116 0,0.70703 0.19587,0.19587 0.51116,0.19587 0.70703,0 l 2.47461,-2.47461 2.47461,2.47461 c 0.19587,0.19587 0.51116,0.19587 0.70703,0 0.19587,-0.19587 0.19587,-0.51116 0,-0.70703 l -2.47461,-2.47461 2.47461,-2.47461 c 0.19587,-0.19587 0.19587,-0.51116 0,-0.70703 -0.19587,-0.19587 -0.51116,-0.19587 -0.70703,0 l -2.47461,2.47461 -2.47461,-2.47461 c -0.0979,-0.0979 -0.2257,-0.14844 -0.35351,-0.14844 z" transform="matrix(0.26458334,0,0,0.26458334,-28.477687,240.77612)"/></g><g id="switch-slider-checked-dark" transform="matrix(3.7795275,0,0,3.7795275,341.00017,-1021.8125)" style="fill:url(#linearGradient1254);fill-opacity:1"><path id="path1228" d="m 150.36328,197.8418 c -0.12781,0 -0.25558,0.0505 -0.35351,0.14843 l -5.30274,5.30274 -3.18164,-3.18164 c -0.19587,-0.19587 -0.51116,-0.19587 -0.70703,0 -0.19587,0.19587 -0.19587,0.51116 0,0.70703 l 3.53516,3.53516 c 0.1469,0.1469 0.3605,0.18282 0.54101,0.10937 0.0602,-0.0245 0.11705,-0.0604 0.16602,-0.10937 l 5.65625,-5.65625 c 0.19587,-0.19587 0.19587,-0.51117 0,-0.70704 -0.0979,-0.0979 -0.22571,-0.14843 -0.35352,-0.14843 z" transform="matrix(0.26458334,0,0,0.26458334,-35.563766,240.9083)" style="opacity:1;fill:url(#linearGradient164);fill-opacity:1;fill-rule:evenodd;stroke:none;stroke-width:1.09544504;stroke-opacity:1"/></g><g id="switch-slider-unchecked-dark" transform="matrix(3.7795275,0,0,3.7795275,314.21814,-1021.313)" style="fill:url(#linearGradient1252);fill-opacity:1"><path id="path1232" d="m 115.80469,198.16992 c -0.12781,0 -0.25754,0.0505 -0.35547,0.14844 -0.19587,0.19587 -0.19587,0.51116 0,0.70703 l 2.47656,2.47461 -2.47461,2.47461 c -0.19587,0.19587 -0.19587,0.51116 0,0.70703 0.19587,0.19587 0.51116,0.19587 0.70703,0 l 2.47461,-2.47461 2.47461,2.47461 c 0.19587,0.19587 0.51116,0.19587 0.70703,0 0.19587,-0.19587 0.19587,-0.51116 0,-0.70703 l -2.47461,-2.47461 2.47461,-2.47461 c 0.19587,-0.19587 0.19587,-0.51116 0,-0.70703 -0.19587,-0.19587 -0.51116,-0.19587 -0.70703,0 l -2.47461,2.47461 -2.47461,-2.47461 c -0.0979,-0.0979 -0.2257,-0.14844 -0.35351,-0.14844 z" transform="matrix(0.26458334,0,0,0.26458334,-28.477687,240.77612)" style="opacity:1;fill:url(#linearGradient166);fill-opacity:1;fill-rule:evenodd;stroke:none;stroke-width:1.34164059;stroke-opacity:1"/></g></svg>