<svg xmlns="http://www.w3.org/2000/svg" xmlns:svg="http://www.w3.org/2000/svg" xmlns:xlink="http://www.w3.org/1999/xlink" id="svg571" width="200" height="480" version="1.1" viewBox="0 0 200 480"><metadata id="metadata573"/><rect id="rect6" width="200" height="480" fill="url(#color-bg)"/><defs id="defs418"><linearGradient id="color-fg"><stop id="stop8" stop-color="#FFF"/></linearGradient><linearGradient id="color-fg-disabled"><stop id="stop11" stop-color="#FFF" stop-opacity=".5"/></linearGradient><linearGradient id="color-fg-secondary"><stop id="stop14" stop-color="#FFF" stop-opacity=".7"/></linearGradient><linearGradient id="color-fg-secondary-disabled"><stop id="stop17" stop-color="#FFF" stop-opacity=".3"/></linearGradient><linearGradient id="color-divider"><stop id="stop20" stop-color="#FFF" stop-opacity=".12"/></linearGradient><linearGradient id="color-primary"><stop id="stop23" stop-color="#5657f5"/></linearGradient><linearGradient id="color-accent"><stop id="stop26" stop-color="#5657f5"/></linearGradient><linearGradient id="color-accent-insensitive"><stop id="stop29" stop-color="#5657f5" stop-opacity=".5"/></linearGradient><linearGradient id="color-bg"><stop id="stop32" stop-color="#34343B"/></linearGradient><linearGradient id="color-bg-lighter"><stop id="stop35" stop-color="#3B3B43"/></linearGradient><linearGradient id="color-base"><stop id="stop38" stop-color="#44454B"/></linearGradient><linearGradient id="color-base-alt"><stop id="stop41" stop-color="#44454B"/></linearGradient><linearGradient id="color-border"><stop id="stop44" stop-color="#000" stop-opacity=".26"/></linearGradient><filter id="1" width="1" height="1" x="0" y="0" color-interpolation-filters="sRGB"><feFlood id="feFlood47" flood-color="#000" flood-opacity=".12" result="flood"/><feComposite id="feComposite49" in="flood" in2="SourceGraphic" operator="in" result="composite1"/><feGaussianBlur id="feGaussianBlur51" in="composite1" result="blur" stdDeviation="1.5"/><feOffset id="feOffset53" dx="0" dy="1" result="offset"/><feComposite id="feComposite55" in="SourceGraphic" in2="offset" result="fbSourceGraphic"/><feFlood id="feFlood57" flood-color="#000" flood-opacity=".24" result="flood"/><feComposite id="feComposite59" in="flood" in2="fbSourceGraphic" operator="in" result="composite1"/><feGaussianBlur id="feGaussianBlur61" in="composite1" result="blur" stdDeviation="1"/><feOffset id="feOffset63" dx="0" dy="1" result="offset"/><feComposite id="feComposite65" in="fbSourceGraphic" in2="offset" result="composite2"/></filter><rect id="1x1" width="1" height="1"/><rect id="2x2" width="2" height="2"/><rect id="4x4" width="4" height="4"/><rect id="16x16" width="16" height="16" opacity="0"/><rect id="17x17" width="17" height="17" opacity="0"/><rect id="24x24" width="24" height="24" opacity="0"/><clipPath id="left"><rect id="rect74" width="10" height="20"/></clipPath><clipPath id="right"><rect id="rect77" width="10" height="20" x="10"/></clipPath><clipPath id="left-top"><rect id="rect80" width="10" height="10"/></clipPath><clipPath id="left-bottom"><rect id="rect83" width="10" height="10" y="10"/></clipPath><clipPath id="right-top"><rect id="rect86" width="10" height="10" x="10"/></clipPath><clipPath id="right-bottom"><rect id="rect89" width="10" height="10" x="10" y="10"/></clipPath><g id="base-box"><rect id="rect92" width="20" height="20" opacity="0"/><rect id="rect94" width="16" height="16" x="2" y="2" rx="2" ry="2"/></g><use id="base-flat-button" fill="url(#color-fg)" opacity="0" xlink:href="#base-box"/><use id="base-flat-button-hover" fill="url(#color-fg)" opacity=".15" xlink:href="#base-box"/><use id="base-flat-button-active" fill="url(#color-fg)" opacity=".3" xlink:href="#base-box"/><use id="base-flat-button-insensitive" fill="url(#color-fg)" opacity="0" xlink:href="#base-box"/><use id="base-button" fill="url(#color-bg-lighter)" filter="url(#1)" xlink:href="#base-box"/><use id="base-button-hover" filter="url(#1)" xlink:href="#base-button"/><g id="base-button-active"><use id="use103" xlink:href="#base-button-hover"/><use id="use105" xlink:href="#base-flat-button-active"/></g><use id="base-button-insensitive" fill="url(#color-divider)" xlink:href="#base-box"/><use id="base-entry-background" fill="url(#color-base)" xlink:href="#1x1"/><use id="base-entry-background-insensitive" fill="url(#color-base-alt)" xlink:href="#1x1"/><use id="base-entry-box" fill="url(#color-base)" filter="url(#1)" xlink:href="#base-box"/><use id="base-entry-box-active" filter="url(#1)" xlink:href="#base-entry-box"/><use id="base-entry-box-insensitive" fill="url(#color-base-alt)" filter="url(#1)" xlink:href="#base-box"/><rect id="background-fill" width="20" height="20"/><g id="base-entry"><use id="use115" xlink:href="#background-fill"/><use id="use117" xlink:href="#base-entry-box"/></g><g id="base-entry-active"><use id="use120" xlink:href="#background-fill"/><use id="use122" xlink:href="#base-entry-box-active"/></g><g id="base-entry-insensitive"><use id="use125" xlink:href="#background-fill"/><use id="use127" xlink:href="#base-entry-box-insensitive"/></g><use id="base-combo-rtl-button" clip-path="url(#left)" xlink:href="#base-button"/><use id="base-combo-rtl-button-hover" clip-path="url(#left)" xlink:href="#base-button-hover"/><use id="base-combo-rtl-button-active" clip-path="url(#left)" xlink:href="#base-button-active"/><use id="base-combo-rtl-button-insensitive" clip-path="url(#left)" xlink:href="#base-button-insensitive"/><use id="base-combo-ltr-button" clip-path="url(#right)" xlink:href="#base-button"/><use id="base-combo-ltr-button-hover" clip-path="url(#right)" xlink:href="#base-button-hover"/><use id="base-combo-ltr-button-active" clip-path="url(#right)" xlink:href="#base-button-active"/><use id="base-combo-ltr-button-insensitive" clip-path="url(#right)" xlink:href="#base-button-insensitive"/><use id="base-spin-rtl-up" clip-path="url(#left-top)" xlink:href="#base-button"/><use id="base-spin-rtl-up-hover" clip-path="url(#left-top)" xlink:href="#base-button-hover"/><use id="base-spin-rtl-up-active" clip-path="url(#left-top)" xlink:href="#base-button-active"/><use id="base-spin-rtl-up-insensitive" clip-path="url(#left-top)" xlink:href="#base-button-insensitive"/><use id="base-spin-rtl-down" clip-path="url(#left-bottom)" xlink:href="#base-button"/><use id="base-spin-rtl-down-hover" clip-path="url(#left-bottom)" xlink:href="#base-button-hover"/><use id="base-spin-rtl-down-active" clip-path="url(#left-bottom)" xlink:href="#base-button-active"/><use id="base-spin-rtl-down-insensitive" clip-path="url(#left-bottom)" xlink:href="#base-button-insensitive"/><use id="base-spin-ltr-up" clip-path="url(#right-top)" xlink:href="#base-button"/><use id="base-spin-ltr-up-hover" clip-path="url(#right-top)" xlink:href="#base-button-hover"/><use id="base-spin-ltr-up-active" clip-path="url(#right-top)" xlink:href="#base-button-active"/><use id="base-spin-ltr-up-insensitive" clip-path="url(#right-top)" xlink:href="#base-button-insensitive"/><use id="base-spin-ltr-down" clip-path="url(#right-bottom)" xlink:href="#base-button"/><use id="base-spin-ltr-down-hover" clip-path="url(#right-bottom)" xlink:href="#base-button-hover"/><use id="base-spin-ltr-down-active" clip-path="url(#right-bottom)" xlink:href="#base-button-active"/><use id="base-spin-ltr-down-insensitive" clip-path="url(#right-bottom)" xlink:href="#base-button-insensitive"/><use id="base-combo-ltr-entry" clip-path="url(#left)" xlink:href="#base-entry"/><use id="base-combo-ltr-entry-active" clip-path="url(#left)" xlink:href="#base-entry-active"/><use id="base-combo-ltr-entry-insensitive" clip-path="url(#left)" xlink:href="#base-entry-insensitive"/><use id="base-combo-rtl-entry" clip-path="url(#right)" xlink:href="#base-entry"/><use id="base-combo-rtl-entry-active" clip-path="url(#right)" xlink:href="#base-entry-active"/><use id="base-combo-rtl-entry-insensitive" clip-path="url(#right)" xlink:href="#base-entry-insensitive"/><path id="checkbox-unchecked-path" d="M19 5v14H5V5h14m0-2H5c-1.1 0-2 .9-2 2v14c0 1.1.9 2 2 2h14c1.1 0 2-.9 2-2V5c0-1.1-.9-2-2-2z"/><path id="checkbox-checked-path" d="M19 3H5c-1.11 0-2 .9-2 2v14c0 1.1.89 2 2 2h14c1.11 0 2-.9 2-2V5c0-1.1-.89-2-2-2zm-9 14l-5-5 1.41-1.41L10 14.17l7.59-7.59L19 8l-9 9z"/><path id="checkbox-mixed-path" d="M19 3H5c-1.1 0-2 .9-2 2v14c0 1.1.9 2 2 2h14c1.1 0 2-.9 2-2V5c0-1.1-.9-2-2-2zm-2 10H7v-2h10v2z"/><path id="radio-unchecked-path" d="M12 2C6.48 2 2 6.48 2 12s4.48 10 10 10 10-4.48 10-10S17.52 2 12 2zm0 18c-4.42 0-8-3.58-8-8s3.58-8 8-8 8 3.58 8 8-3.58 8-8 8z"/><path id="radio-checked-path" d="M12 7c-2.76 0-5 2.24-5 5s2.24 5 5 5 5-2.24 5-5-2.24-5-5-5zm0-5C6.48 2 2 6.48 2 12s4.48 10 10 10 10-4.48 10-10S17.52 2 12 2zm0 18c-4.42 0-8-3.58-8-8s3.58-8 8-8 8 3.58 8 8-3.58 8-8 8z"/><path id="radio-mixed-path" d="m12 2c-5.52 0-10 4.48-10 10s4.48 10 10 10 10-4.48 10-10-4.48-10-10-10zm0 2c4.42 0 8 3.58 8 8s-3.58 8-8 8-8-3.58-8-8 3.58-8 8-8zm-5 7v2h10v-2h-10z"/><path id="menu-checkbox-unchecked-path" d="m2 0a2 2 0 0 0 -2 2v12a2 2 0 0 0 2 2h12a2 2 0 0 0 2 -2v-12a2 2 0 0 0 -2 -2h-12zm0 2h12v12h-12v-12z"/><path id="menu-checkbox-checked-path" d="m2 0a2 2 0 0 0 -2 2v12a2 2 0 0 0 2 2h12a2 2 0 0 0 2 -2v-12a2 2 0 0 0 -2 -2h-12zm10.6 3.59l1.41 1.41-8 8-4-4 1.41-1.41 2.59 2.59 6.59-6.59z"/><path id="menu-checkbox-mixed-path" d="m2 0a2 2 0 0 0 -2 2v12a2 2 0 0 0 2 2h12a2 2 0 0 0 2 -2v-12a2 2 0 0 0 -2 -2h-12zm2 7h8v2h-8v-2z"/><path id="menu-radio-unchecked-path" d="m8 0a8 8 0 0 0 -8 8 8 8 0 0 0 8 8 8 8 0 0 0 8 -8 8 8 0 0 0 -8 -8zm0 2a6 6 0 0 1 6 6 6 6 0 0 1 -6 6 6 6 0 0 1 -6 -6 6 6 0 0 1 6 -6z"/><path id="menu-radio-checked-path" d="m8 0a8 8 0 0 0 -8 8 8 8 0 0 0 8 8 8 8 0 0 0 8 -8 8 8 0 0 0 -8 -8zm0 2a6 6 0 0 1 6 6 6 6 0 0 1 -6 6 6 6 0 0 1 -6 -6 6 6 0 0 1 6 -6zm0 2a4 4 0 0 0 -4 4 4 4 0 0 0 4 4 4 4 0 0 0 4 -4 4 4 0 0 0 -4 -4z"/><path id="menu-radio-mixed-path" d="m8 0a8 8 0 0 0 -8 8 8 8 0 0 0 8 8 8 8 0 0 0 8 -8 8 8 0 0 0 -8 -8zm0 2a6 6 0 0 1 6 6 6 6 0 0 1 -6 6 6 6 0 0 1 -6 -6 6 6 0 0 1 6 -6zm-4 5v2h8v-2h-8z"/><rect id="button-fill" width="24" height="24" rx="2" ry="2"/><g id="base-checkbox-unchecked"><use id="use173" opacity="0" xlink:href="#button-fill"/><use id="use175" xlink:href="#checkbox-unchecked-path"/></g><g id="base-checkbox-unchecked-hover"><use id="use178" opacity=".15" xlink:href="#button-fill"/><use id="use180" xlink:href="#checkbox-unchecked-path"/></g><g id="base-checkbox-unchecked-active"><use id="use183" opacity=".3" xlink:href="#button-fill"/><use id="use185" xlink:href="#checkbox-unchecked-path"/></g><g id="base-checkbox-checked"><use id="use188" opacity="0" xlink:href="#button-fill"/><use id="use190" xlink:href="#checkbox-checked-path"/></g><g id="base-checkbox-checked-hover"><use id="use193" opacity=".15" xlink:href="#button-fill"/><use id="use195" xlink:href="#checkbox-checked-path"/></g><g id="base-checkbox-checked-active"><use id="use198" opacity=".3" xlink:href="#button-fill"/><use id="use200" xlink:href="#checkbox-checked-path"/></g><g id="base-checkbox-mixed"><use id="use203" opacity="0" xlink:href="#button-fill"/><use id="use205" xlink:href="#checkbox-mixed-path"/></g><g id="base-checkbox-mixed-hover"><use id="use208" opacity=".15" xlink:href="#button-fill"/><use id="use210" xlink:href="#checkbox-mixed-path"/></g><g id="base-checkbox-mixed-active"><use id="use213" opacity=".3" xlink:href="#button-fill"/><use id="use215" xlink:href="#checkbox-mixed-path"/></g><g id="base-radio-unchecked"><use id="use218" opacity="0" xlink:href="#button-fill"/><use id="use220" xlink:href="#radio-unchecked-path"/></g><g id="base-radio-unchecked-hover"><use id="use223" opacity=".15" xlink:href="#button-fill"/><use id="use225" xlink:href="#radio-unchecked-path"/></g><g id="base-radio-unchecked-active"><use id="use228" opacity=".3" xlink:href="#button-fill"/><use id="use230" xlink:href="#radio-unchecked-path"/></g><g id="base-radio-checked"><use id="use233" opacity="0" xlink:href="#button-fill"/><use id="use235" xlink:href="#radio-checked-path"/></g><g id="base-radio-checked-hover"><use id="use238" opacity=".15" xlink:href="#button-fill"/><use id="use240" xlink:href="#radio-checked-path"/></g><g id="base-radio-checked-active"><use id="use243" opacity=".3" xlink:href="#button-fill"/><use id="use245" xlink:href="#radio-checked-path"/></g><g id="base-radio-mixed"><use id="use248" opacity="0" xlink:href="#button-fill"/><use id="use250" xlink:href="#radio-mixed-path"/></g><g id="base-radio-mixed-hover"><use id="use253" opacity=".15" xlink:href="#button-fill"/><use id="use255" xlink:href="#radio-mixed-path"/></g><g id="base-radio-mixed-active"><use id="use258" opacity=".3" xlink:href="#button-fill"/><use id="use260" xlink:href="#radio-mixed-path"/></g><g id="base-menu-checkbox-unchecked"><use id="use263" xlink:href="#16x16"/><use id="use265" xlink:href="#menu-checkbox-unchecked-path"/></g><g id="base-menu-checkbox-checked"><use id="use268" xlink:href="#16x16"/><use id="use270" xlink:href="#menu-checkbox-checked-path"/></g><g id="base-menu-checkbox-mixed"><use id="use273" xlink:href="#16x16"/><use id="use275" xlink:href="#menu-checkbox-mixed-path"/></g><g id="base-menu-radio-unchecked"><use id="use278" xlink:href="#16x16"/><use id="use280" xlink:href="#menu-radio-unchecked-path"/></g><g id="base-menu-radio-checked"><use id="use283" xlink:href="#16x16"/><use id="use285" xlink:href="#menu-radio-checked-path"/></g><g id="base-menu-radio-mixed"><use id="use288" xlink:href="#16x16"/><use id="use290" xlink:href="#menu-radio-mixed-path"/></g><g id="base-scale-slider"><use id="use293" xlink:href="#24x24"/><circle id="circle295" cx="12" cy="12" r="7" fill="url(#color-accent)"/></g><g id="base-scale-slider-hover"><use id="use298" xlink:href="#24x24"/><circle id="circle300" cx="12" cy="12" r="8" fill="url(#color-accent)"/></g><g id="base-scale-slider-active"><use id="use303" xlink:href="#24x24"/><circle id="circle305" cx="12" cy="12" r="9" fill="url(#color-accent)"/></g><g id="base-scale-slider-insensitive"><use id="use308" xlink:href="#24x24"/><circle id="circle310" cx="12" cy="12" r="7" fill="url(#color-bg)"/><circle id="circle312" cx="12" cy="12" r="6" fill="none" stroke="url(#color-divider)" stroke-width="2"/></g><g id="base-scale-horz-trough"><use id="use315" xlink:href="#24x24"/><rect id="rect317" width="12" height="2" x="6" y="11"/></g><g id="base-scale-vert-trough"><use id="use320" xlink:href="#24x24"/><rect id="rect322" width="2" height="12" x="11" y="6"/></g><g id="base-scrollbar-horz-slider"><use id="use325" y="-1" xlink:href="#17x17"/><rect id="rect327" width="9" height="8" x="4" y="4" ry="4"/></g><g id="base-scrollbar-horz-trough"><use id="use330" y="-1" xlink:href="#base-border"/><use id="use332" xlink:href="#base-entry-background"/></g><use id="base-scrollbar-vert-ltr-slider" transform="rotate(-90 8.5 8.5)" xlink:href="#base-scrollbar-horz-slider"/><use id="base-scrollbar-vert-ltr-trough" transform="rotate(-90 0.5 0.5)" xlink:href="#base-scrollbar-horz-trough"/><use id="base-scrollbar-vert-rtl-slider" transform="rotate(90 8 8)" xlink:href="#base-scrollbar-horz-slider"/><use id="base-scrollbar-vert-rtl-trough" transform="rotate(90 0.5 0.5)" xlink:href="#base-scrollbar-horz-trough"/><g id="base-handle-horz"><circle id="circle339" cx="2" cy="2" r="2"/><circle id="circle341" cx="8" cy="2" r="2"/><circle id="circle343" cx="14" cy="2" r="2"/></g><use id="base-handle-vert" transform="rotate(90 2 2)" xlink:href="#base-handle-horz"/><path id="pan-path" d="M 13,6 8,11 3,6 Z"/><g id="base-pan-down"><use id="use348" xlink:href="#16x16"/><use id="use350" xlink:href="#pan-path"/></g><g id="base-pan-up"><use id="use353" xlink:href="#16x16"/><use id="use355" transform="rotate(180 8 8)" xlink:href="#pan-path"/></g><g id="base-pan-left"><use id="use358" xlink:href="#16x16"/><use id="use360" transform="rotate(90 8 8)" xlink:href="#pan-path"/></g><g id="base-pan-right"><use id="use363" xlink:href="#16x16"/><use id="use365" transform="rotate(-90 8 8)" xlink:href="#pan-path"/></g><g id="base-pan-left-semi"><use id="use368" xlink:href="#16x16"/><use id="use370" transform="rotate(45 8 8)" xlink:href="#pan-path"/></g><g id="base-pan-right-semi"><use id="use373" xlink:href="#16x16"/><use id="use375" transform="rotate(-45 8 8)" xlink:href="#pan-path"/></g><use id="base-border" fill="url(#color-border)" xlink:href="#1x1"/><use id="base-tab" fill="url(#color-primary)" xlink:href="#1x1"/><use id="base-progressbar-progress" fill="url(#color-primary)" xlink:href="#4x4"/><g id="base-progressbar-trough"><use id="use381" fill="url(#color-bg)" xlink:href="#4x4"/><use id="use383" opacity=".3" xlink:href="#base-progressbar-progress"/></g><rect id="base-frame" width="2" height="2" x=".5" y=".5" fill="none" stroke="url(#color-border)" stroke-width="1"/><g id="base-frame-notebook"><rect id="rect387" width="3" height="3" fill="url(#color-border)"/><use id="use389" x="1" y="1" fill="url(#color-base)" xlink:href="#1x1"/></g><g id="base-frame-inline"><rect id="rect392" width="3" height="2" fill="url(#color-border)"/><use id="use394" x="1" fill="url(#color-base-alt)" xlink:href="#1x1"/></g><rect id="base-focus" width="3" height="3" x="1" y="1" fill="none" stroke="url(#color-fg)" stroke-width="2" opacity=".3" rx="1" ry="1"/><g id="base-treeview-ltr-button"><use id="use398" fill="url(#color-base)" xlink:href="#2x2"/><use id="use400" fill="url(#color-border)" xlink:href="#2x2"/><use id="use402" fill="url(#color-base)" xlink:href="#1x1"/></g><g id="base-treeview-ltr-button-hover"><use id="use405" xlink:href="#base-treeview-ltr-button"/><use id="use407" fill="url(#color-fg)" opacity=".05" xlink:href="#1x1"/></g><g id="base-treeview-ltr-button-active"><use id="use410" xlink:href="#base-treeview-ltr-button"/><use id="use412" fill="url(#color-fg)" opacity=".3" xlink:href="#1x1"/></g><use id="base-treeview-rtl-button" transform="scale(-1 1)" xlink:href="#base-treeview-ltr-button"/><use id="base-treeview-rtl-button-hover" transform="scale(-1 1)" xlink:href="#base-treeview-ltr-button-hover"/><use id="base-treeview-rtl-button-active" transform="scale(-1 1)" xlink:href="#base-treeview-ltr-button-active"/><linearGradient id="linearGradient1251" xlink:href="#color-bg"/><linearGradient id="linearGradient1253" xlink:href="#color-bg"/><linearGradient id="linearGradient1255" xlink:href="#color-bg"/><linearGradient id="linearGradient1257" xlink:href="#color-bg"/><linearGradient id="linearGradient1259" xlink:href="#color-bg"/><linearGradient id="linearGradient1261" xlink:href="#color-bg"/><linearGradient id="linearGradient1263" xlink:href="#color-bg"/><linearGradient id="linearGradient1265" xlink:href="#color-bg"/><linearGradient id="linearGradient1267" xlink:href="#color-bg"/><linearGradient id="linearGradient1260" x1="132" x2="144" y1="424" y2="424" gradientUnits="userSpaceOnUse" xlink:href="#color-primary"/><linearGradient id="linearGradient1268" x1="132" x2="144" y1="430" y2="430" gradientUnits="userSpaceOnUse" xlink:href="#color-primary"/></defs><use id="flat-button" x="8" y="8" xlink:href="#base-flat-button"/><use id="flat-button-hover" x="8" y="28" xlink:href="#base-flat-button-hover"/><use id="flat-button-active" x="8" y="48" xlink:href="#base-flat-button-active"/><use id="flat-button-insensitive" x="8" y="68" xlink:href="#base-flat-button-insensitive"/><use id="button" x="32" y="8" xlink:href="#base-button"/><use id="button-hover" x="32" y="28" xlink:href="#base-button-hover"/><use id="button-active" x="32" y="48" xlink:href="#base-button-active"/><use id="button-insensitive" x="32" y="68" xlink:href="#base-button-insensitive"/><use id="combo-rtl-button" x="52" y="8" xlink:href="#base-combo-rtl-button"/><use id="combo-rtl-button-hover" x="52" y="28" xlink:href="#base-combo-rtl-button-hover"/><use id="combo-rtl-button-active" x="52" y="48" xlink:href="#base-combo-rtl-button-active"/><use id="combo-rtl-button-insensitive" x="52" y="68" xlink:href="#base-combo-rtl-button-insensitive"/><use id="combo-ltr-button" x="56" y="8" xlink:href="#base-combo-ltr-button"/><use id="combo-ltr-button-hover" x="56" y="28" xlink:href="#base-combo-ltr-button-hover"/><use id="combo-ltr-button-active" x="56" y="48" xlink:href="#base-combo-ltr-button-active"/><use id="combo-ltr-button-insensitive" x="56" y="68" xlink:href="#base-combo-ltr-button-insensitive"/><use id="spin-rtl-up" x="76" y="8" xlink:href="#base-spin-rtl-up"/><use id="spin-rtl-up-hover" x="76" y="28" xlink:href="#base-spin-rtl-up-hover"/><use id="spin-rtl-up-active" x="76" y="48" xlink:href="#base-spin-rtl-up-active"/><use id="spin-rtl-up-insensitive" x="76" y="68" xlink:href="#base-spin-rtl-up-insensitive"/><use id="spin-rtl-down" x="76" y="8" xlink:href="#base-spin-rtl-down"/><use id="spin-rtl-down-hover" x="76" y="28" xlink:href="#base-spin-rtl-down-hover"/><use id="spin-rtl-down-active" x="76" y="48" xlink:href="#base-spin-rtl-down-active"/><use id="spin-rtl-down-insensitive" x="76" y="68" xlink:href="#base-spin-rtl-down-insensitive"/><use id="spin-ltr-up" x="80" y="8" xlink:href="#base-spin-ltr-up"/><use id="spin-ltr-up-hover" x="80" y="28" xlink:href="#base-spin-ltr-up-hover"/><use id="spin-ltr-up-active" x="80" y="48" xlink:href="#base-spin-ltr-up-active"/><use id="spin-ltr-up-insensitive" x="80" y="68" xlink:href="#base-spin-ltr-up-insensitive"/><use id="spin-ltr-down" x="80" y="8" xlink:href="#base-spin-ltr-down"/><use id="spin-ltr-down-hover" x="80" y="28" xlink:href="#base-spin-ltr-down-hover"/><use id="spin-ltr-down-active" x="80" y="48" xlink:href="#base-spin-ltr-down-active"/><use id="spin-ltr-down-insensitive" x="80" y="68" xlink:href="#base-spin-ltr-down-insensitive"/><use id="entry-background" x="104" y="8" xlink:href="#base-entry-background"/><use id="entry-background-insensitive" x="104" y="16" xlink:href="#base-entry-background-insensitive"/><use id="entry" x="104" y="28" fill="url(#color-bg)" xlink:href="#base-entry" style="fill:#34343b;fill-opacity:1"/><use id="entry-active" x="104" y="48" fill="url(#color-bg)" xlink:href="#base-entry-active" style="fill:#34343b;fill-opacity:1"/><use id="entry-insensitive" x="104" y="68" fill="url(#color-bg)" xlink:href="#base-entry-insensitive" style="fill:#34343b;fill-opacity:1"/><use id="combo-ltr-entry" x="124" y="28" fill="url(#color-bg)" xlink:href="#base-combo-ltr-entry" style="fill:#34343b;fill-opacity:1"/><use id="combo-ltr-entry-active" x="124" y="48" fill="url(#color-bg)" xlink:href="#base-combo-ltr-entry-active" style="fill:#34343b;fill-opacity:1"/><use id="combo-ltr-entry-insensitive" x="124" y="68" fill="url(#color-bg)" xlink:href="#base-combo-ltr-entry-insensitive" style="fill:#34343b;fill-opacity:1"/><use id="combo-rtl-entry" x="128" y="28" fill="url(#color-bg)" xlink:href="#base-combo-rtl-entry" style="fill:#34343b;fill-opacity:1"/><use id="combo-rtl-entry-active" x="128" y="48" fill="url(#color-bg)" xlink:href="#base-combo-rtl-entry-active" style="fill:#34343b;fill-opacity:1"/><use id="combo-rtl-entry-insensitive" x="128" y="68" fill="url(#color-bg)" xlink:href="#base-combo-rtl-entry-insensitive" style="fill:#34343b;fill-opacity:1"/><use id="notebook-entry" x="152" y="28" fill="url(#color-base)" xlink:href="#base-entry" style="fill-opacity:1;fill:url(#linearGradient1267)"/><use id="notebook-entry-active" x="152" y="48" fill="url(#color-base)" xlink:href="#base-entry-active" style="fill-opacity:1;fill:url(#linearGradient1257)"/><use id="notebook-entry-insensitive" x="152" y="68" fill="url(#color-base)" xlink:href="#base-entry-insensitive" style="fill-opacity:1;fill:url(#linearGradient1255)"/><use id="notebook-combo-ltr-entry" x="172" y="28" fill="url(#color-base)" xlink:href="#base-combo-ltr-entry" style="fill-opacity:1;fill:url(#linearGradient1265)"/><use id="notebook-combo-ltr-entry-active" x="172" y="48" fill="url(#color-base)" xlink:href="#base-combo-ltr-entry-active" style="fill-opacity:1;fill:url(#linearGradient1259)"/><use id="notebook-combo-ltr-entry-insensitive" x="172" y="68" fill="url(#color-base)" xlink:href="#base-combo-ltr-entry-insensitive" style="fill-opacity:1;fill:url(#linearGradient1253)"/><use id="notebook-combo-rtl-entry" x="176" y="28" fill="url(#color-base)" xlink:href="#base-combo-rtl-entry" style="fill-opacity:1;fill:url(#linearGradient1263)"/><use id="notebook-combo-rtl-entry-active" x="176" y="48" fill="url(#color-base)" xlink:href="#base-combo-rtl-entry-active" style="fill-opacity:1;fill:url(#linearGradient1261)"/><use id="notebook-combo-rtl-entry-insensitive" x="176" y="68" fill="url(#color-base)" xlink:href="#base-combo-rtl-entry-insensitive" style="fill-opacity:1;fill:url(#linearGradient1251)"/><use id="checkbox-unchecked" x="8" y="92" fill="url(#color-fg-secondary)" xlink:href="#base-checkbox-unchecked"/><use id="checkbox-unchecked-hover" x="8" y="124" fill="url(#color-fg)" xlink:href="#base-checkbox-unchecked-hover"/><use id="checkbox-unchecked-active" x="8" y="156" fill="url(#color-fg)" xlink:href="#base-checkbox-unchecked-active"/><use id="checkbox-unchecked-insensitive" x="8" y="188" fill="url(#color-fg-secondary-disabled)" xlink:href="#base-checkbox-unchecked"/><use id="checkbox-checked" x="40" y="92" fill="url(#color-accent)" xlink:href="#base-checkbox-checked"/><use id="checkbox-checked-hover" x="40" y="124" fill="url(#color-accent)" xlink:href="#base-checkbox-checked-hover"/><use id="checkbox-checked-active" x="40" y="156" fill="url(#color-accent)" xlink:href="#base-checkbox-checked-active"/><use id="checkbox-checked-insensitive" x="40" y="188" fill="url(#color-accent-insensitive)" xlink:href="#base-checkbox-checked"/><use id="checkbox-mixed" x="72" y="92" fill="url(#color-accent)" xlink:href="#base-checkbox-mixed"/><use id="checkbox-mixed-hover" x="72" y="124" fill="url(#color-accent)" xlink:href="#base-checkbox-mixed-hover"/><use id="checkbox-mixed-active" x="72" y="156" fill="url(#color-accent)" xlink:href="#base-checkbox-mixed-active"/><use id="checkbox-mixed-insensitive" x="72" y="188" fill="url(#color-accent-insensitive)" xlink:href="#base-checkbox-mixed"/><use id="radio-unchecked" x="104" y="92" fill="url(#color-fg-secondary)" xlink:href="#base-radio-unchecked"/><use id="radio-unchecked-hover" x="104" y="124" fill="url(#color-fg)" xlink:href="#base-radio-unchecked-hover"/><use id="radio-unchecked-active" x="104" y="156" fill="url(#color-fg)" xlink:href="#base-radio-unchecked-active"/><use id="radio-unchecked-insensitive" x="104" y="188" fill="url(#color-fg-secondary-disabled)" xlink:href="#base-radio-unchecked"/><use id="radio-checked" x="136" y="92" fill="url(#color-accent)" xlink:href="#base-radio-checked"/><use id="radio-checked-hover" x="136" y="124" fill="url(#color-accent)" xlink:href="#base-radio-checked-hover"/><use id="radio-checked-active" x="136" y="156" fill="url(#color-accent)" xlink:href="#base-radio-checked-active"/><use id="radio-checked-insensitive" x="136" y="188" fill="url(#color-accent-insensitive)" xlink:href="#base-radio-checked"/><use id="radio-mixed" x="168" y="92" fill="url(#color-accent)" xlink:href="#base-radio-mixed"/><use id="radio-mixed-hover" x="168" y="124" fill="url(#color-accent)" xlink:href="#base-radio-mixed-hover"/><use id="radio-mixed-active" x="168" y="156" fill="url(#color-accent)" xlink:href="#base-radio-mixed-active"/><use id="radio-mixed-insensitive" x="168" y="188" fill="url(#color-accent-insensitive)" xlink:href="#base-radio-mixed"/><use id="menu-checkbox-unchecked" x="12" y="220" fill="url(#color-fg-secondary)" xlink:href="#base-menu-checkbox-unchecked"/><use id="menu-checkbox-unchecked-insensitive" x="12" y="244" fill="url(#color-fg-secondary-disabled)" xlink:href="#base-menu-checkbox-unchecked"/><use id="menu-checkbox-checked" x="44" y="220" fill="url(#color-accent)" xlink:href="#base-menu-checkbox-checked"/><use id="menu-checkbox-checked-insensitive" x="44" y="244" fill="url(#color-accent-insensitive)" xlink:href="#base-menu-checkbox-checked"/><use id="menu-checkbox-mixed" x="76" y="220" fill="url(#color-accent)" xlink:href="#base-menu-checkbox-mixed"/><use id="menu-checkbox-mixed-insensitive" x="76" y="244" fill="url(#color-accent-insensitive)" xlink:href="#base-menu-checkbox-mixed"/><use id="menu-radio-unchecked" x="108" y="220" fill="url(#color-fg-secondary)" xlink:href="#base-menu-radio-unchecked"/><use id="menu-radio-unchecked-insensitive" x="108" y="244" fill="url(#color-fg-secondary-disabled)" xlink:href="#base-menu-radio-unchecked"/><use id="menu-radio-checked" x="140" y="220" fill="url(#color-accent)" xlink:href="#base-menu-radio-checked"/><use id="menu-radio-checked-insensitive" x="140" y="244" fill="url(#color-accent-insensitive)" xlink:href="#base-menu-radio-checked"/><use id="menu-radio-mixed" x="172" y="220" fill="url(#color-accent)" xlink:href="#base-menu-radio-mixed"/><use id="menu-radio-mixed-insensitive" x="172" y="244" fill="url(#color-accent-insensitive)" xlink:href="#base-menu-radio-mixed"/><use id="scale-slider" x="8" y="268" xlink:href="#base-scale-slider"/><use id="scale-slider-hover" x="8" y="300" xlink:href="#base-scale-slider-hover"/><use id="scale-slider-active" x="8" y="332" xlink:href="#base-scale-slider-active"/><use id="scale-slider-insensitive" x="8" y="364" xlink:href="#base-scale-slider-insensitive"/><use id="scale-horz-trough" x="40" y="268" fill="url(#color-fg-secondary-disabled)" xlink:href="#base-scale-horz-trough"/><use id="scale-horz-trough-active" x="40" y="332" fill="url(#color-accent)" xlink:href="#base-scale-horz-trough"/><use id="scale-horz-trough-insensitive" x="40" y="364" fill="url(#color-divider)" xlink:href="#base-scale-horz-trough"/><use id="scale-vert-trough" x="72" y="268" fill="url(#color-fg-secondary-disabled)" xlink:href="#base-scale-vert-trough"/><use id="scale-vert-trough-active" x="72" y="332" fill="url(#color-accent)" xlink:href="#base-scale-vert-trough"/><use id="scale-vert-trough-insensitive" x="72" y="364" fill="url(#color-divider)" xlink:href="#base-scale-vert-trough"/><use id="scrollbar-horz-slider" x="104" y="268" fill="url(#color-fg-disabled)" xlink:href="#base-scrollbar-horz-slider"/><use id="scrollbar-horz-slider-hover" x="104" y="292" fill="url(#color-fg-secondary)" xlink:href="#base-scrollbar-horz-slider"/><use id="scrollbar-horz-slider-active" x="104" y="316" fill="url(#color-fg)" xlink:href="#base-scrollbar-horz-slider"/><use id="scrollbar-horz-slider-insensitive" x="104" y="340" fill="url(#color-fg-secondary-disabled)" xlink:href="#base-scrollbar-horz-slider"/><use id="scrollbar-horz-trough" x="104" y="364" xlink:href="#base-scrollbar-horz-trough"/><use id="scrollbar-vert-ltr-slider" x="128" y="268" fill="url(#color-fg-disabled)" xlink:href="#base-scrollbar-vert-ltr-slider"/><use id="scrollbar-vert-ltr-slider-hover" x="128" y="292" fill="url(#color-fg-secondary)" xlink:href="#base-scrollbar-vert-ltr-slider"/><use id="scrollbar-vert-ltr-slider-active" x="128" y="316" fill="url(#color-fg)" xlink:href="#base-scrollbar-vert-ltr-slider"/><use id="scrollbar-vert-ltr-slider-insensitive" x="128" y="340" fill="url(#color-fg-secondary-disabled)" xlink:href="#base-scrollbar-vert-ltr-slider"/><use id="scrollbar-vert-ltr-trough" x="128" y="364" xlink:href="#base-scrollbar-vert-ltr-trough"/><use id="scrollbar-vert-rtl-slider" x="152" y="268" fill="url(#color-fg-disabled)" xlink:href="#base-scrollbar-vert-rtl-slider"/><use id="scrollbar-vert-rtl-slider-hover" x="152" y="292" fill="url(#color-fg-secondary)" xlink:href="#base-scrollbar-vert-rtl-slider"/><use id="scrollbar-vert-rtl-slider-active" x="152" y="316" fill="url(#color-fg)" xlink:href="#base-scrollbar-vert-rtl-slider"/><use id="scrollbar-vert-rtl-slider-insensitive" x="152" y="340" fill="url(#color-fg-secondary-disabled)" xlink:href="#base-scrollbar-vert-rtl-slider"/><use id="scrollbar-vert-rtl-trough" x="152" y="364" xlink:href="#base-scrollbar-vert-rtl-trough"/><use id="handle-horz" x="176" y="292" fill="url(#color-fg-disabled)" xlink:href="#base-handle-horz"/><use id="handle-horz-hover" x="176" y="328" fill="url(#color-fg-secondary)" xlink:href="#base-handle-horz"/><use id="handle-horz-active" x="176" y="364" fill="url(#color-fg)" xlink:href="#base-handle-horz"/><use id="handle-vert" x="176" y="268" fill="url(#color-fg-disabled)" xlink:href="#base-handle-vert"/><use id="handle-vert-hover" x="176" y="304" fill="url(#color-fg-secondary)" xlink:href="#base-handle-vert"/><use id="handle-vert-active" x="176" y="340" fill="url(#color-fg)" xlink:href="#base-handle-vert"/><use id="pan-up" x="8" y="396" fill="url(#color-fg)" xlink:href="#base-pan-up"/><use id="pan-up-insensitive" x="8" y="416" fill="url(#color-fg-disabled)" xlink:href="#base-pan-up"/><use id="pan-up-alt" x="8" y="436" fill="url(#color-fg-secondary)" xlink:href="#base-pan-up"/><use id="pan-up-alt-insensitive" x="8" y="456" fill="url(#color-fg-secondary-disabled)" xlink:href="#base-pan-up"/><use id="pan-down" x="28" y="396" fill="url(#color-fg)" xlink:href="#base-pan-down"/><use id="pan-down-insensitive" x="28" y="416" fill="url(#color-fg-disabled)" xlink:href="#base-pan-down"/><use id="pan-down-alt" x="28" y="436" fill="url(#color-fg-secondary)" xlink:href="#base-pan-down"/><use id="pan-down-alt-insensitive" x="28" y="456" fill="url(#color-fg-secondary-disabled)" xlink:href="#base-pan-down"/><use id="pan-left" x="48" y="396" fill="url(#color-fg)" xlink:href="#base-pan-left"/><use id="pan-left-insensitive" x="48" y="416" fill="url(#color-fg-disabled)" xlink:href="#base-pan-left"/><use id="pan-left-alt" x="48" y="436" fill="url(#color-fg-secondary)" xlink:href="#base-pan-left"/><use id="pan-left-alt-insensitive" x="48" y="456" fill="url(#color-fg-secondary-disabled)" xlink:href="#base-pan-left"/><use id="pan-right" x="68" y="396" fill="url(#color-fg)" xlink:href="#base-pan-right"/><use id="pan-right-insensitive" x="68" y="416" fill="url(#color-fg-disabled)" xlink:href="#base-pan-right"/><use id="pan-right-alt" x="68" y="436" fill="url(#color-fg-secondary)" xlink:href="#base-pan-right"/><use id="pan-right-alt-insensitive" x="68" y="456" fill="url(#color-fg-secondary-disabled)" xlink:href="#base-pan-right"/><use id="pan-left-semi" x="88" y="396" fill="url(#color-fg)" xlink:href="#base-pan-left-semi"/><use id="pan-right-semi" x="108" y="396" fill="url(#color-fg)" xlink:href="#base-pan-right-semi"/><use id="border" x="132" y="396" xlink:href="#base-border"/><use id="tab" x="144" y="396" xlink:href="#base-tab"/><use id="progressbar-progress" x="156" y="396" xlink:href="#base-progressbar-progress"/><use id="progressbar-trough" x="168" y="396" xlink:href="#base-progressbar-trough"/><use id="frame" x="132" y="408" xlink:href="#base-frame"/><use id="frame-notebook" x="144" y="408" xlink:href="#base-frame-notebook"/><use id="frame-inline" x="156" y="408" xlink:href="#base-frame-inline"/><use id="focus" x="168" y="408" xlink:href="#base-focus"/><use id="treeview-ltr-button" x="180" y="396" xlink:href="#base-treeview-ltr-button"/><use id="treeview-ltr-button-hover" x="180" y="404" xlink:href="#base-treeview-ltr-button-hover"/><use id="treeview-ltr-button-active" x="180" y="412" xlink:href="#base-treeview-ltr-button-active"/><use id="treeview-rtl-button" x="190" y="396" xlink:href="#base-treeview-rtl-button"/><use id="treeview-rtl-button-hover" x="190" y="404" xlink:href="#base-treeview-rtl-button-hover"/><use id="treeview-rtl-button-active" x="190" y="412" xlink:href="#base-treeview-rtl-button-active"/><rect style="opacity:.5;fill-opacity:1;stroke:none;stroke-width:.81649661;stroke-opacity:1;fill:url(#linearGradient1260)" id="pathbar_button_prelight" width="12" height="2" x="132" y="423" rx="0" ry="0"/><rect id="pathbar_button_active" width="12" height="2" x="132" y="429" rx="0" ry="0" style="opacity:1;fill-opacity:1;stroke:none;stroke-width:.81649661;stroke-opacity:1;fill:url(#linearGradient1268)"/></svg>